<svg viewBox="0 0 113 114" fill="currentColor" xmlns="http://www.w3.org/2000/svg">  <path d="M103.761 81.6398C101.876 80.8857 101.122 78.6232 101.876 76.9263C102.63 75.0409 104.893 74.2868 106.589 75.0409C108.475 75.7951 109.229 78.0576 108.475 79.7544C108.475 79.943 108.286 79.943 108.286 80.1315C107.532 81.6399 105.458 82.394 103.761 81.6398Z" fill="#121F7A" stroke="#121F7A"></path>  <path d="M92.2598 101.437C90.7515 102.756 88.489 102.379 87.1692 100.871C85.8494 99.3628 86.2265 97.1003 87.7348 95.7805C89.2431 94.4607 91.5056 94.8378 92.8254 96.3461C93.7681 97.4774 93.9566 99.1742 93.2025 100.494C92.8254 100.871 92.6369 101.06 92.2598 101.437Z" fill="#121F7A" stroke="#121F7A"></path>  <path d="M92.2598 101.437C90.7515 102.756 88.489 102.379 87.1692 100.871C85.8494 99.3628 86.2265 97.1003 87.7348 95.7805C89.2431 94.4607 91.5056 94.8378 92.8254 96.3461C93.7681 97.4774 93.9566 99.1742 93.2025 100.494C92.8254 100.871 92.6369 101.06 92.2598 101.437Z" fill="#121F7A" stroke="#121F7A"></path>  <path d="M109.606 56.7522C107.532 56.9408 105.835 55.4325 105.647 53.3585C105.458 51.2846 106.967 49.5878 109.04 49.3992C111.114 49.2107 112.811 50.719 113 52.7929C113 53.5471 112.811 54.3012 112.434 54.8669C111.869 55.9981 110.926 56.5637 109.606 56.7522Z" fill="#121F7A" stroke="#121F7A"></path>  <path d="M109.606 56.7522C107.532 56.9408 105.835 55.4325 105.647 53.3585C105.458 51.2846 106.967 49.5878 109.04 49.3992C111.114 49.2107 112.811 50.719 113 52.7929C113 53.5471 112.811 54.3012 112.434 54.8669C111.869 55.9981 110.926 56.5637 109.606 56.7522Z" fill="#121F7A" stroke="#121F7A"></path>  <path d="M67.562 113.126C65.6766 113.503 63.6027 112.183 63.2256 110.298C62.8485 108.412 64.1683 106.339 66.0537 105.961C67.9391 105.584 70.013 106.904 70.3901 108.79C70.5786 109.732 70.3901 110.675 70.013 111.241C69.4474 112.183 68.6933 112.749 67.562 113.126Z" fill="#121F7A" stroke="#121F7A"></path>  <path d="M67.562 113.126C65.6766 113.503 63.6027 112.183 63.2256 110.298C62.8485 108.412 64.1683 106.339 66.0537 105.961C67.9391 105.584 70.013 106.904 70.3901 108.79C70.5786 109.732 70.3901 110.675 70.013 111.241C69.4474 112.183 68.6933 112.749 67.562 113.126Z" fill="#121F7A" stroke="#121F7A"></path>  <path d="M103.196 32.0535C101.499 33.1848 99.2364 32.6191 98.1052 30.9223C96.9739 29.2254 97.5395 26.9629 99.2363 25.8317C100.933 24.7005 103.196 25.2661 104.327 26.9629C105.081 28.0942 105.081 29.6025 104.327 30.7337C104.138 31.2993 103.761 31.6764 103.196 32.0535Z" fill="#121F7A" stroke="#121F7A"></path>  <path d="M103.196 32.0535C101.499 33.1848 99.2364 32.6191 98.1052 30.9223C96.9739 29.2254 97.5395 26.9629 99.2363 25.8317C100.933 24.7005 103.196 25.2661 104.327 26.9629C105.081 28.0942 105.081 29.6025 104.327 30.7337C104.138 31.2993 103.761 31.6764 103.196 32.0535Z" fill="#121F7A" stroke="#121F7A"></path>  <path d="M40.4117 111.995C38.5263 111.429 37.3949 109.355 37.9605 107.47C38.5262 105.584 40.6002 104.453 42.4855 105.019C44.3709 105.584 45.5022 107.658 44.9365 109.544C44.9365 109.921 44.748 110.109 44.5594 110.298C43.8053 111.618 42.1085 112.372 40.4117 111.995Z" fill="#121F7A" stroke="#121F7A"></path>  <path d="M81.1368 14.3308C80.9482 14.3308 80.9482 14.3308 81.1368 14.3308C79.2514 13.1995 78.6858 10.9371 79.6285 9.24021C80.5712 7.54335 82.8336 6.97774 84.5305 7.92044C84.5305 7.92044 84.5305 7.92044 84.7191 7.92044C84.7191 7.92044 84.719 7.92044 84.9076 7.92044C86.6044 8.86314 87.1701 11.1256 86.2274 12.8225C85.0961 14.7078 82.8336 15.462 81.1368 14.3308Z" fill="#121F7A" stroke="#121F7A"></path>  <path d="M21.935 98.2309C20.6152 99.7392 18.1643 99.7392 16.8445 98.4194C15.3362 97.0996 15.3361 94.6486 16.6559 93.3288C17.9757 91.8205 20.4267 91.8205 21.7465 93.1403C23.0663 94.2715 23.2548 96.1569 22.3121 97.6652C22.3121 97.8538 22.1235 98.0423 21.935 98.2309Z" fill="#121F7A" stroke="#121F7A"></path>  <path d="M21.935 98.2309C20.6152 99.7392 18.1643 99.7392 16.8445 98.4194C15.3362 97.0996 15.3361 94.6486 16.6559 93.3288C17.9757 91.8205 20.4267 91.8205 21.7465 93.1403C23.0663 94.2715 23.2548 96.1569 22.3121 97.6652C22.3121 97.8538 22.1235 98.0423 21.935 98.2309Z" fill="#121F7A" stroke="#121F7A"></path>  <path d="M58.1352 7.73218C56.0613 7.73218 54.553 6.03532 54.7415 3.96139C54.7415 1.88745 56.4384 0.379129 58.5123 0.567669C60.5862 0.567669 62.0946 2.26453 62.0946 4.33846C62.0946 4.90408 61.906 5.46972 61.5289 6.03534C60.7747 6.97803 59.6435 7.73218 58.1352 7.73218Z" fill="#121F7A" stroke="#121F7A"></path>  <path d="M6.85099 77.6804C4.96559 78.2461 2.89172 77.3034 2.3261 75.418C1.76049 73.5326 2.70321 71.4586 4.5886 70.893C6.474 70.3274 8.54787 71.2701 9.11349 73.1555C9.49057 74.0982 9.302 75.2294 8.73638 76.1721C8.3593 76.7377 7.79369 77.3034 6.85099 77.6804Z" fill="#121F7A" stroke="#121F7A"></path>  <path d="M6.85099 77.6804C4.96559 78.2461 2.89172 77.3034 2.3261 75.418C1.76049 73.5326 2.70321 71.4586 4.5886 70.893C6.474 70.3274 8.54787 71.2701 9.11349 73.1555C9.49057 74.0982 9.302 75.2294 8.73638 76.1721C8.3593 76.7377 7.79369 77.3034 6.85099 77.6804Z" fill="#121F7A" stroke="#121F7A"></path>  <path d="M34.9435 12.4456C33.0581 13.3883 30.9842 12.6342 30.0415 10.7488C29.0988 8.8634 30.0415 6.78946 31.7383 5.84676C33.6237 4.90406 35.6977 5.65824 36.6404 7.54363C37.206 8.67487 37.0174 9.99462 36.4518 10.9373C36.0747 11.6915 35.6977 12.0686 34.9435 12.4456Z" fill="#121F7A" stroke="#121F7A"></path>  <path d="M34.9435 12.4456C33.0581 13.3883 30.9842 12.6342 30.0415 10.7488C29.0988 8.8634 30.0415 6.78946 31.7383 5.84676C33.6237 4.90406 35.6977 5.65824 36.6404 7.54363C37.206 8.67487 37.0174 9.99462 36.4518 10.9373C36.0747 11.6915 35.6977 12.0686 34.9435 12.4456Z" fill="#121F7A" stroke="#121F7A"></path>  <path d="M3.08079 52.4162C1.00686 52.0391 -0.312874 50.1537 0.0642052 48.2683C0.441285 46.1944 2.3267 44.8746 4.2121 45.2517C6.28604 45.6288 7.60577 47.5142 7.22869 49.3996C7.22869 49.7766 7.04013 50.3423 6.85159 50.7193C6.09743 51.8506 4.58911 52.6047 3.08079 52.4162Z" fill="#121F7A" stroke="#121F7A"></path>  <path d="M3.08079 52.4162C1.00686 52.0391 -0.312874 50.1537 0.0642052 48.2683C0.441285 46.1944 2.3267 44.8746 4.2121 45.2517C6.28604 45.6288 7.60577 47.5142 7.22869 49.3996C7.22869 49.7766 7.04013 50.3423 6.85159 50.7193C6.09743 51.8506 4.58911 52.6047 3.08079 52.4162Z" fill="#121F7A" stroke="#121F7A"></path>  <path d="M16.4674 27.5287C15.3361 29.037 13.0736 29.4141 11.3768 28.2829C9.86847 27.1516 9.49134 24.8891 10.6226 23.1923C11.7538 21.4954 14.0163 21.3069 15.7132 22.4381C17.2215 23.5694 17.5986 25.6433 16.6559 27.1516C16.6559 27.3402 16.6559 27.3402 16.4674 27.5287Z" fill="#121F7A" stroke="#121F7A"></path>  <path d="M95.0884 77.1146C93.5801 76.549 92.8259 74.6636 93.58 73.1552C94.1456 71.6469 96.0311 70.8928 97.5394 71.6469C99.0477 72.2126 99.8019 74.0979 99.0477 75.6063C99.0477 75.7948 98.8592 75.7948 98.8592 75.9833C98.1051 77.1146 96.5968 77.6802 95.0884 77.1146Z" fill="#121F7A" stroke="#121F7A"></path>  <path d="M95.0884 77.1146C93.5801 76.549 92.8259 74.6636 93.58 73.1552C94.1456 71.6469 96.0311 70.8928 97.5394 71.6469C99.0477 72.2126 99.8019 74.0979 99.0477 75.6063C99.0477 75.7948 98.8592 75.7948 98.8592 75.9833C98.1051 77.1146 96.5968 77.6802 95.0884 77.1146Z" fill="#121F7A" stroke="#121F7A"></path>  <path d="M85.6622 93.3296C84.3424 94.4608 82.457 94.0837 81.5143 92.9525C80.383 91.6327 80.5716 89.7473 81.8914 88.8046C83.2111 87.6734 85.0965 88.0505 86.0391 89.1817C86.7933 90.1244 86.9819 91.4442 86.2278 92.5754C86.2278 92.9525 86.0392 93.1411 85.6622 93.3296Z" fill="#121F7A" stroke="#121F7A"></path>  <path d="M85.6622 93.3296C84.3424 94.4608 82.457 94.0837 81.5143 92.9525C80.383 91.6327 80.5716 89.7473 81.8914 88.8046C83.2111 87.6734 85.0965 88.0505 86.0391 89.1817C86.7933 90.1244 86.9819 91.4442 86.2278 92.5754C86.2278 92.9525 86.0392 93.1411 85.6622 93.3296Z" fill="#121F7A" stroke="#121F7A"></path>  <path d="M99.9908 56.7524C98.2939 56.9409 96.9741 55.6211 96.7856 54.1128C96.597 52.416 97.9169 51.0962 99.4252 50.9077C101.122 50.7191 102.442 52.0389 102.63 53.5472C102.63 54.1128 102.442 54.6784 102.253 55.244C101.876 56.1867 100.933 56.7524 99.9908 56.7524Z" fill="#121F7A" stroke="#121F7A"></path>  <path d="M99.9908 56.7524C98.2939 56.9409 96.9741 55.6211 96.7856 54.1128C96.597 52.416 97.9169 51.0962 99.4252 50.9077C101.122 50.7191 102.442 52.0389 102.63 53.5472C102.63 54.1128 102.442 54.6784 102.253 55.244C101.876 56.1867 100.933 56.7524 99.9908 56.7524Z" fill="#121F7A" stroke="#121F7A"></path>  <path d="M65.4874 102.945C63.7906 103.322 62.2822 102.19 61.9051 100.682C61.528 98.9853 62.6593 97.477 64.1676 97.0999C65.8645 96.7229 67.3728 97.8541 67.7499 99.3624C67.9385 100.117 67.7499 100.871 67.3728 101.436C67.1843 102.19 66.4301 102.756 65.4874 102.945Z" fill="#121F7A" stroke="#121F7A"></path>  <path d="M65.4874 102.945C63.7906 103.322 62.2822 102.19 61.9051 100.682C61.528 98.9853 62.6593 97.477 64.1676 97.0999C65.8645 96.7229 67.3728 97.8541 67.7499 99.3624C67.9385 100.117 67.7499 100.871 67.3728 101.436C67.1843 102.19 66.4301 102.756 65.4874 102.945Z" fill="#121F7A" stroke="#121F7A"></path>  <path d="M94.7107 36.5787C93.391 37.5214 91.5055 36.9558 90.5628 35.636C89.6201 34.3162 90.1858 32.4308 91.5055 31.4881C92.8253 30.5454 94.7107 31.1111 95.6534 32.4308C96.2191 33.3735 96.2191 34.5048 95.6534 35.4475C95.4649 36.0131 95.0878 36.3902 94.7107 36.5787Z" fill="#121F7A" stroke="#121F7A"></path>  <path d="M43.2402 102.002C41.7318 101.625 40.7891 99.9281 41.1662 98.2313C41.5432 96.723 43.2401 95.7803 44.9369 96.1574C46.4453 96.5344 47.388 98.2313 47.011 99.9282C47.011 100.117 46.8224 100.305 46.6338 100.682C46.0682 101.814 44.5599 102.379 43.2402 102.002Z" fill="#121F7A" stroke="#121F7A"></path>  <path d="M43.2402 102.002C41.7318 101.625 40.7891 99.9281 41.1662 98.2313C41.5432 96.723 43.2401 95.7803 44.9369 96.1574C46.4453 96.5344 47.388 98.2313 47.011 99.9282C47.011 100.117 46.8224 100.305 46.6338 100.682C46.0682 101.814 44.5599 102.379 43.2402 102.002Z" fill="#121F7A" stroke="#121F7A"></path>  <path d="M76.6113 22.2499C76.6113 22.0614 76.6113 22.0614 76.6113 22.2499C75.103 21.3072 74.5374 19.6104 75.2916 18.1021C76.0458 16.5937 77.9311 16.2167 79.4394 16.9708C80.9477 17.725 81.3248 19.6104 80.5707 21.1187C79.8165 22.4385 78.1196 23.0041 76.6113 22.2499Z" fill="#121F7A" stroke="#121F7A"></path>  <path d="M76.6113 22.2499C76.6113 22.0614 76.6113 22.0614 76.6113 22.2499C75.103 21.3072 74.5374 19.6104 75.2916 18.1021C76.0458 16.5937 77.9311 16.2167 79.4394 16.9708C80.9477 17.725 81.3248 19.6104 80.5707 21.1187C79.8165 22.4385 78.1196 23.0041 76.6113 22.2499Z" fill="#121F7A" stroke="#121F7A"></path>  <path d="M28.1565 90.8786C27.0252 92.0099 25.1398 92.1984 24.0086 90.8786C22.8773 89.7474 22.8773 87.862 24.0086 86.7308C25.1398 85.5995 27.0252 85.5995 28.1565 86.7308C29.0992 87.6735 29.2877 89.1818 28.7221 90.313C28.5335 90.5015 28.345 90.6901 28.1565 90.8786Z" fill="#121F7A" stroke="#121F7A"></path>  <path d="M28.1565 90.8786C27.0252 92.0099 25.1398 92.1984 24.0086 90.8786C22.8773 89.7474 22.8773 87.862 24.0086 86.7308C25.1398 85.5995 27.0252 85.5995 28.1565 86.7308C29.0992 87.6735 29.2877 89.1818 28.7221 90.313C28.5335 90.5015 28.345 90.6901 28.1565 90.8786Z" fill="#121F7A" stroke="#121F7A"></path>  <path d="M57.7578 16.7818C56.0609 16.7818 54.9297 15.2734 54.9297 13.7651C54.9297 12.0682 56.4381 10.937 57.9464 10.937C59.6432 10.937 60.963 12.4453 60.7745 13.9537C60.7745 14.5193 60.5859 14.8964 60.3974 15.2734C60.0203 16.2161 58.889 16.7818 57.7578 16.7818Z" fill="#121F7A" stroke="#121F7A"></path>  <path d="M57.7578 16.7818C56.0609 16.7818 54.9297 15.2734 54.9297 13.7651C54.9297 12.0682 56.4381 10.937 57.9464 10.937C59.6432 10.937 60.963 12.4453 60.7745 13.9537C60.7745 14.5193 60.5859 14.8964 60.3974 15.2734C60.0203 16.2161 58.889 16.7818 57.7578 16.7818Z" fill="#121F7A" stroke="#121F7A"></path>  <path d="M15.9016 73.91C14.3932 74.4756 12.6964 73.5329 12.1308 72.0246C11.5651 70.5163 12.5078 68.8194 14.0162 68.2538C15.5245 67.6882 17.2213 68.6309 17.7869 70.1392C17.9755 70.8934 17.9754 71.8361 17.5983 72.5902C17.2213 73.1558 16.6557 73.7215 15.9016 73.91Z" fill="#121F7A" stroke="#121F7A"></path>  <path d="M38.714 20.5524C37.2057 21.3066 35.5089 20.5524 34.7547 19.0441C34.0005 17.5358 34.7546 15.8389 36.0744 15.0848C37.5827 14.3306 39.2796 15.0847 40.0338 16.4045C40.4109 17.3472 40.4108 18.2899 39.8452 19.2326C39.8452 19.9868 39.2796 20.3639 38.714 20.5524Z" fill="#121F7A" stroke="#121F7A"></path>  <path d="M38.714 20.5524C37.2057 21.3066 35.5089 20.5524 34.7547 19.0441C34.0005 17.5358 34.7546 15.8389 36.0744 15.0848C37.5827 14.3306 39.2796 15.0847 40.0338 16.4045C40.4109 17.3472 40.4108 18.2899 39.8452 19.2326C39.8452 19.9868 39.2796 20.3639 38.714 20.5524Z" fill="#121F7A" stroke="#121F7A"></path>  <path d="M12.6965 53.1703C10.9996 52.9817 10.0569 51.4734 10.2455 49.7766C10.434 48.0797 11.9423 47.137 13.6392 47.3255C15.336 47.5141 16.2787 49.0224 16.0902 50.7193C16.0902 51.0963 15.9016 51.4734 15.7131 51.662C15.1474 52.7932 14.0162 53.5474 12.6965 53.1703Z" fill="#121F7A" stroke="#121F7A"></path>  <path d="M12.6965 53.1703C10.9996 52.9817 10.0569 51.4734 10.2455 49.7766C10.434 48.0797 11.9423 47.137 13.6392 47.3255C15.336 47.5141 16.2787 49.0224 16.0902 50.7193C16.0902 51.0963 15.9016 51.4734 15.7131 51.662C15.1474 52.7932 14.0162 53.5474 12.6965 53.1703Z" fill="#121F7A" stroke="#121F7A"></path>  <path d="M23.8202 32.9964C22.8775 34.3161 20.9922 34.5047 19.6724 33.562C18.3527 32.6193 18.164 30.7339 19.1067 29.4141C20.0494 28.0943 21.9348 27.9058 23.2546 28.8485C24.3859 29.7912 24.763 31.488 24.0088 32.8078C23.8203 32.8078 23.8202 32.8078 23.8202 32.9964Z" fill="#121F7A" stroke="#121F7A"></path>  <path d="M23.8202 32.9964C22.8775 34.3161 20.9922 34.5047 19.6724 33.562C18.3527 32.6193 18.164 30.7339 19.1067 29.4141C20.0494 28.0943 21.9348 27.9058 23.2546 28.8485C24.3859 29.7912 24.763 31.488 24.0088 32.8078C23.8203 32.8078 23.8202 32.8078 23.8202 32.9964Z" fill="#121F7A" stroke="#121F7A"></path>  <path d="M87.735 73.3442C86.6037 72.7786 86.0381 71.4588 86.4152 70.1391C86.9808 69.0078 88.3006 68.2537 89.6204 68.8193C90.7516 69.3849 91.3172 70.7047 90.9402 72.0245C90.9402 72.0245 90.9401 72.213 90.7516 72.213C90.1859 73.3442 88.8662 73.9099 87.735 73.3442Z" fill="#121F7A" stroke="#121F7A"></path>  <path d="M87.735 73.3442C86.6037 72.7786 86.0381 71.4588 86.4152 70.1391C86.9808 69.0078 88.3006 68.2537 89.6204 68.8193C90.7516 69.3849 91.3172 70.7047 90.9402 72.0245C90.9402 72.0245 90.9401 72.213 90.7516 72.213C90.1859 73.3442 88.8662 73.9099 87.735 73.3442Z" fill="#121F7A" stroke="#121F7A"></path>  <path d="M80.0053 86.5415C79.0626 87.2957 77.3657 87.2957 76.6115 86.1644C75.8574 85.2217 75.8574 83.7134 76.9886 82.7707C77.9313 82.0166 79.6282 82.0166 80.3823 83.1478C80.9479 83.902 81.1366 85.0332 80.5709 85.7874C80.5709 86.1644 80.3824 86.353 80.0053 86.5415Z" fill="#121F7A" stroke="#121F7A"></path>  <path d="M80.0053 86.5415C79.0626 87.2957 77.3657 87.2957 76.6115 86.1644C75.8574 85.2217 75.8574 83.7134 76.9886 82.7707C77.9313 82.0166 79.6282 82.0166 80.3823 83.1478C80.9479 83.902 81.1366 85.0332 80.5709 85.7874C80.5709 86.1644 80.3824 86.353 80.0053 86.5415Z" fill="#121F7A" stroke="#121F7A"></path>  <path d="M91.6943 56.9412C90.3745 57.1298 89.2434 55.9985 89.0548 54.6788C88.8663 53.359 89.9975 52.2277 91.3173 52.0392C92.6371 51.8506 93.7683 52.9819 93.9568 54.3017C93.9568 54.8673 93.9568 55.2444 93.5797 55.6215C93.2026 56.3756 92.4485 56.9412 91.6943 56.9412Z" fill="#121F7A" stroke="#121F7A"></path>  <path d="M91.6943 56.9412C90.3745 57.1298 89.2434 55.9985 89.0548 54.6788C88.8663 53.359 89.9975 52.2277 91.3173 52.0392C92.6371 51.8506 93.7683 52.9819 93.9568 54.3017C93.9568 54.8673 93.9568 55.2444 93.5797 55.6215C93.2026 56.3756 92.4485 56.9412 91.6943 56.9412Z" fill="#121F7A" stroke="#121F7A"></path>  <path d="M63.7904 94.2719C62.4706 94.4605 61.1508 93.7063 60.9623 92.3865C60.7737 91.0668 61.5279 89.747 62.8477 89.5585C64.1674 89.3699 65.4872 90.1241 65.6758 91.4439C65.8643 92.0095 65.6758 92.5751 65.4873 93.1407C65.1102 93.7063 64.5445 94.0834 63.7904 94.2719Z" fill="#121F7A" stroke="#121F7A"></path>  <path d="M87.3583 40.5378C86.2271 41.292 84.7188 40.9149 83.9646 39.7836C83.2105 38.6524 83.5876 37.1441 84.7188 36.3899C85.8501 35.6358 87.3583 36.0128 88.1125 37.1441C88.6781 37.8982 88.6781 38.841 88.1125 39.5951C88.1125 39.9722 87.7354 40.3493 87.3583 40.5378Z" fill="#121F7A" stroke="#121F7A"></path>  <path d="M87.3583 40.5378C86.2271 41.292 84.7188 40.9149 83.9646 39.7836C83.2105 38.6524 83.5876 37.1441 84.7188 36.3899C85.8501 35.6358 87.3583 36.0128 88.1125 37.1441C88.6781 37.8982 88.6781 38.841 88.1125 39.5951C88.1125 39.9722 87.7354 40.3493 87.3583 40.5378Z" fill="#121F7A" stroke="#121F7A"></path>  <path d="M45.6914 93.5176C44.3716 93.1405 43.6174 91.8207 43.9945 90.501C44.3716 89.1812 45.6915 88.427 47.0112 88.8041C48.331 89.1812 49.0851 90.501 48.708 91.8207C48.708 92.0093 48.5195 92.1978 48.5195 92.3864C47.9539 93.3291 46.8227 93.8947 45.6914 93.5176Z" fill="#121F7A" stroke="#121F7A"></path>  <path d="M45.6914 93.5176C44.3716 93.1405 43.6174 91.8207 43.9945 90.501C44.3716 89.1812 45.6915 88.427 47.0112 88.8041C48.331 89.1812 49.0851 90.501 48.708 91.8207C48.708 92.0093 48.5195 92.1978 48.5195 92.3864C47.9539 93.3291 46.8227 93.8947 45.6914 93.5176Z" fill="#121F7A" stroke="#121F7A"></path>  <path d="M72.8407 28.8487C72.6522 28.8487 72.6522 28.8487 72.8407 28.8487C72.6522 28.8487 72.6522 28.8487 72.8407 28.8487C71.521 28.0945 71.1439 26.5862 71.898 25.455C72.4637 24.3238 73.972 23.9467 75.1032 24.5123C76.2345 25.2665 76.6116 26.5862 76.0459 27.7175C75.2918 29.0373 73.972 29.6029 72.8407 28.8487Z" fill="#121F7A" stroke="#121F7A"></path>  <path d="M33.4357 84.4679C32.493 85.4106 30.9847 85.4106 30.042 84.4679C29.0993 83.5252 29.0993 82.0169 30.042 81.0742C30.9847 80.1315 32.493 80.1315 33.4357 81.0742C34.1898 81.8284 34.3784 83.1481 33.8128 84.0908C33.8128 84.0908 33.6242 84.2794 33.4357 84.4679Z" fill="#121F7A" stroke="#121F7A"></path>  <path d="M57.5693 24.512C56.2495 24.512 55.1182 23.3807 55.3068 22.0609C55.3068 20.7412 56.438 19.6099 57.7578 19.7985C59.0775 19.7985 60.2088 20.9297 60.0203 22.2495C60.0203 22.6265 59.8317 23.0036 59.6432 23.3807C59.2661 23.9463 58.512 24.512 57.5693 24.512Z" fill="#121F7A" stroke="#121F7A"></path>  <path d="M57.5693 24.512C56.2495 24.512 55.1182 23.3807 55.3068 22.0609C55.3068 20.7412 56.438 19.6099 57.7578 19.7985C59.0775 19.7985 60.2088 20.9297 60.0203 22.2495C60.0203 22.6265 59.8317 23.0036 59.6432 23.3807C59.2661 23.9463 58.512 24.512 57.5693 24.512Z" fill="#121F7A" stroke="#121F7A"></path>  <path d="M23.4429 70.7046C22.1231 71.0817 20.8033 70.516 20.4262 69.1963C20.0491 67.8765 20.6147 66.5567 21.9345 66.1796C23.2543 65.8025 24.5741 66.3682 24.9512 67.6879C25.1397 68.4421 25.1397 69.0077 24.7626 69.5733C24.5741 70.139 24.1971 70.516 23.4429 70.7046Z" fill="#121F7A" stroke="#121F7A"></path>  <path d="M23.4429 70.7046C22.1231 71.0817 20.8033 70.516 20.4262 69.1963C20.0491 67.8765 20.6147 66.5567 21.9345 66.1796C23.2543 65.8025 24.5741 66.3682 24.9512 67.6879C25.1397 68.4421 25.1397 69.0077 24.7626 69.5733C24.5741 70.139 24.1971 70.516 23.4429 70.7046Z" fill="#121F7A" stroke="#121F7A"></path>  <path d="M42.1077 27.5285C40.9765 28.0941 39.4682 27.5285 38.9025 26.3973C38.3369 25.2661 38.9026 23.7577 40.0339 23.1921C41.1651 22.6265 42.6734 23.1921 43.2391 24.3234C43.6161 25.0775 43.6161 25.8317 43.2391 26.5858C42.862 26.9629 42.4848 27.34 42.1077 27.5285Z" fill="#121F7A" stroke="#121F7A"></path>  <path d="M42.1077 27.5285C40.9765 28.0941 39.4682 27.5285 38.9025 26.3973C38.3369 25.2661 38.9026 23.7577 40.0339 23.1921C41.1651 22.6265 42.6734 23.1921 43.2391 24.3234C43.6161 25.0775 43.6161 25.8317 43.2391 26.5858C42.862 26.9629 42.4848 27.34 42.1077 27.5285Z" fill="#121F7A" stroke="#121F7A"></path>  <path d="M20.9924 54.1131C19.6727 53.9245 18.73 52.6048 18.9186 51.285C19.1071 49.9652 20.4269 49.0225 21.7467 49.211C23.0664 49.3996 24.0091 50.7194 23.8205 52.0391C23.8205 52.4162 23.6321 52.6048 23.4436 52.7933C23.0665 53.736 21.9351 54.1131 20.9924 54.1131Z" fill="#121F7A" stroke="#121F7A"></path>  <path d="M20.9924 54.1131C19.6727 53.9245 18.73 52.6048 18.9186 51.285C19.1071 49.9652 20.4269 49.0225 21.7467 49.211C23.0664 49.3996 24.0091 50.7194 23.8205 52.0391C23.8205 52.4162 23.6321 52.6048 23.4436 52.7933C23.0665 53.736 21.9351 54.1131 20.9924 54.1131Z" fill="#121F7A" stroke="#121F7A"></path>  <path d="M29.8532 37.5215C29.099 38.6527 27.5907 38.8413 26.4595 38.0871C25.3283 37.333 25.1398 35.8246 25.8939 34.6934C26.6481 33.5622 28.1564 33.3736 29.2876 34.1278C30.2303 34.8819 30.6074 36.2017 29.8532 37.333C30.0417 37.333 30.0417 37.5215 29.8532 37.5215Z" fill="#121F7A" stroke="#121F7A"></path>  <path d="M29.8532 37.5215C29.099 38.6527 27.5907 38.8413 26.4595 38.0871C25.3283 37.333 25.1398 35.8246 25.8939 34.6934C26.6481 33.5622 28.1564 33.3736 29.2876 34.1278C30.2303 34.8819 30.6074 36.2017 29.8532 37.333C30.0417 37.333 30.0417 37.5215 29.8532 37.5215Z" fill="#121F7A" stroke="#121F7A"></path></svg>