<svg viewBox="0 0 80 79" fill="currentColor" xmlns="http://www.w3.org/2000/svg">  <mask id="path-1-inside-1_103_6862" fill="currentColor">    <path fill-rule="evenodd" clip-rule="evenodd" d="M39.8119 18.0091C37.7859 13.0403 34.998 8.43069 32.0988 5.53142C24.8215 -1.74587 14.0857 0.593029 7.74781 6.9309C1.40994 13.2688 -1.76865 23.1649 6.34833 31.2818C9.43549 34.369 13.8463 37.1247 18.5334 39.1084C13.3048 41.1529 8.40122 44.0635 5.36874 47.096C-1.90855 54.3733 0.430349 65.1091 6.76822 71.4469C13.1061 77.7848 23.0022 80.9634 31.1192 72.8464C34.6703 69.2953 37.7828 63.9928 39.7864 58.5328C41.7713 64.2849 45.0196 69.9532 48.7525 73.6862C56.8695 81.8031 66.7656 78.6246 73.1035 72.2867C79.4413 65.9488 81.7802 55.213 74.5029 47.9357C71.0206 44.4534 65.0707 41.1317 58.9948 39.0979C64.5792 37.1003 70.0353 33.9301 73.6633 30.3021C81.7803 22.1851 78.6017 12.289 72.2639 5.95112C65.926 -0.386751 55.1902 -2.72565 47.9129 4.55164C44.8239 7.64065 41.8614 12.6712 39.8119 18.0091Z" fill="#121F7A" stroke="#121F7A"></path>  </mask>  <path d="M39.8119 18.0091L39.15 18.279L39.8319 19.9513L40.4792 18.2653L39.8119 18.0091ZM18.5334 39.1084L18.7938 39.7741L20.4293 39.1346L18.812 38.4502L18.5334 39.1084ZM39.7864 58.5328L40.4621 58.2996L39.8071 56.4015L39.1153 58.2866L39.7864 58.5328ZM58.9948 39.0979L58.754 38.4248L56.8099 39.1203L58.7679 39.7757L58.9948 39.0979ZM31.5933 6.03686C34.4032 8.84671 37.1459 13.3639 39.15 18.279L40.4738 17.7392C38.4259 12.7168 35.5929 8.01467 32.6042 5.02599L31.5933 6.03686ZM8.25325 7.43634C14.4183 1.27128 24.6908 -0.865676 31.5933 6.03686L32.6042 5.02599C24.9521 -2.62607 13.7531 -0.0852179 7.24237 6.42546L8.25325 7.43634ZM6.85377 30.7764C2.94939 26.872 1.79387 22.5894 2.336 18.5339C2.88238 14.4466 5.16461 10.525 8.25325 7.43634L7.24237 6.42546C3.99314 9.67469 1.51713 13.8701 0.919003 18.3445C0.316607 22.8508 1.63029 27.5747 5.84289 31.7873L6.85377 30.7764ZM18.812 38.4502C14.1856 36.4921 9.85965 33.7823 6.85377 30.7764L5.84289 31.7873C9.01133 34.9557 13.507 37.7572 18.2548 39.7667L18.812 38.4502ZM5.87418 47.6014C8.81405 44.6616 13.6212 41.7967 18.7938 39.7741L18.2731 38.4427C12.9884 40.5091 7.98839 43.4655 4.8633 46.5905L5.87418 47.6014ZM7.27366 70.9415C1.1086 64.7764 -1.02836 54.504 5.87418 47.6014L4.8633 46.5905C-2.78875 54.2426 -0.247897 65.4417 6.26278 71.9524L7.27366 70.9415ZM30.6137 72.341C26.7094 76.2453 22.4267 77.4009 18.3712 76.8587C14.2839 76.3124 10.3623 74.0301 7.27366 70.9415L6.26278 71.9524C9.51201 75.2016 13.7074 77.6776 18.1818 78.2757C22.6881 78.8781 27.412 77.5645 31.6246 73.3519L30.6137 72.341ZM39.1153 58.2866C37.1376 63.6762 34.0736 68.8811 30.6137 72.341L31.6246 73.3519C35.267 69.7094 38.428 64.3094 40.4574 58.7791L39.1153 58.2866ZM49.258 73.1807C45.62 69.5428 42.4212 63.977 40.4621 58.2996L39.1107 58.766C41.1214 64.5928 44.4191 70.3636 48.2471 74.1916L49.258 73.1807ZM72.598 71.7812C69.5094 74.8699 65.5878 77.1521 61.5005 77.6985C57.445 78.2406 53.1623 77.0851 49.258 73.1807L48.2471 74.1916C52.4597 78.4042 57.1835 79.7179 61.6899 79.1155C66.1643 78.5174 70.3597 76.0413 73.6089 72.7921L72.598 71.7812ZM73.9975 48.4412C80.9 55.3437 78.7631 65.6162 72.598 71.7812L73.6089 72.7921C80.1196 66.2814 82.6604 55.0823 75.0084 47.4303L73.9975 48.4412ZM58.7679 39.7757C64.7777 41.7874 70.618 45.0616 73.9975 48.4412L75.0084 47.4303C71.4232 43.8451 65.3637 40.476 59.2217 38.42L58.7679 39.7757ZM59.2355 39.7709C64.8921 37.7475 70.4479 34.5284 74.1688 30.8075L73.1579 29.7966C69.6228 33.3318 64.2663 36.4531 58.754 38.4248L59.2355 39.7709ZM74.1688 30.8075C78.3814 26.5949 79.6951 21.871 79.0927 17.3647C78.4945 12.8903 76.0185 8.69491 72.7693 5.44568L71.7584 6.45656C74.8471 9.5452 77.1293 13.4668 77.6757 17.5541C78.2178 21.6096 77.0623 25.8923 73.1579 29.7966L74.1688 30.8075ZM72.7693 5.44568C66.2586 -1.065 55.0595 -3.60585 47.4075 4.0462L48.4184 5.05708C55.3209 -1.84546 65.5934 0.291495 71.7584 6.45656L72.7693 5.44568ZM47.4075 4.0462C44.2245 7.22915 41.216 12.3578 39.1446 17.7529L40.4792 18.2653C42.5067 12.9846 45.4233 8.05215 48.4184 5.05708L47.4075 4.0462Z" fill="#121F7A" mask="url(#path-1-inside-1_103_6862)" stroke="#121F7A"></path>  <path d="M39.8119 18.0091L39.15 18.279L39.8319 19.9513L40.4792 18.2653L39.8119 18.0091ZM18.5334 39.1084L18.7938 39.7741L20.4293 39.1346L18.812 38.4502L18.5334 39.1084ZM39.7864 58.5328L40.4621 58.2996L39.8071 56.4015L39.1153 58.2866L39.7864 58.5328ZM58.9948 39.0979L58.754 38.4248L56.8099 39.1203L58.7679 39.7757L58.9948 39.0979ZM31.5933 6.03686C34.4032 8.84671 37.1459 13.3639 39.15 18.279L40.4738 17.7392C38.4259 12.7168 35.5929 8.01467 32.6042 5.02599L31.5933 6.03686ZM8.25325 7.43634C14.4183 1.27128 24.6908 -0.865676 31.5933 6.03686L32.6042 5.02599C24.9521 -2.62607 13.7531 -0.0852179 7.24237 6.42546L8.25325 7.43634ZM6.85377 30.7764C2.94939 26.872 1.79387 22.5894 2.336 18.5339C2.88238 14.4466 5.16461 10.525 8.25325 7.43634L7.24237 6.42546C3.99314 9.67469 1.51713 13.8701 0.919003 18.3445C0.316607 22.8508 1.63029 27.5747 5.84289 31.7873L6.85377 30.7764ZM18.812 38.4502C14.1856 36.4921 9.85965 33.7823 6.85377 30.7764L5.84289 31.7873C9.01133 34.9557 13.507 37.7572 18.2548 39.7667L18.812 38.4502ZM5.87418 47.6014C8.81405 44.6616 13.6212 41.7967 18.7938 39.7741L18.2731 38.4427C12.9884 40.5091 7.98839 43.4655 4.8633 46.5905L5.87418 47.6014ZM7.27366 70.9415C1.1086 64.7764 -1.02836 54.504 5.87418 47.6014L4.8633 46.5905C-2.78875 54.2426 -0.247897 65.4417 6.26278 71.9524L7.27366 70.9415ZM30.6137 72.341C26.7094 76.2453 22.4267 77.4009 18.3712 76.8587C14.2839 76.3124 10.3623 74.0301 7.27366 70.9415L6.26278 71.9524C9.51201 75.2016 13.7074 77.6776 18.1818 78.2757C22.6881 78.8781 27.412 77.5645 31.6246 73.3519L30.6137 72.341ZM39.1153 58.2866C37.1376 63.6762 34.0736 68.8811 30.6137 72.341L31.6246 73.3519C35.267 69.7094 38.428 64.3094 40.4574 58.7791L39.1153 58.2866ZM49.258 73.1807C45.62 69.5428 42.4212 63.977 40.4621 58.2996L39.1107 58.766C41.1214 64.5928 44.4191 70.3636 48.2471 74.1916L49.258 73.1807ZM72.598 71.7812C69.5094 74.8699 65.5878 77.1521 61.5005 77.6985C57.445 78.2406 53.1623 77.0851 49.258 73.1807L48.2471 74.1916C52.4597 78.4042 57.1835 79.7179 61.6899 79.1155C66.1643 78.5174 70.3597 76.0413 73.6089 72.7921L72.598 71.7812ZM73.9975 48.4412C80.9 55.3437 78.7631 65.6162 72.598 71.7812L73.6089 72.7921C80.1196 66.2814 82.6604 55.0823 75.0084 47.4303L73.9975 48.4412ZM58.7679 39.7757C64.7777 41.7874 70.618 45.0616 73.9975 48.4412L75.0084 47.4303C71.4232 43.8451 65.3637 40.476 59.2217 38.42L58.7679 39.7757ZM59.2355 39.7709C64.8921 37.7475 70.4479 34.5284 74.1688 30.8075L73.1579 29.7966C69.6228 33.3318 64.2663 36.4531 58.754 38.4248L59.2355 39.7709ZM74.1688 30.8075C78.3814 26.5949 79.6951 21.871 79.0927 17.3647C78.4945 12.8903 76.0185 8.69491 72.7693 5.44568L71.7584 6.45656C74.8471 9.5452 77.1293 13.4668 77.6757 17.5541C78.2178 21.6096 77.0623 25.8923 73.1579 29.7966L74.1688 30.8075ZM72.7693 5.44568C66.2586 -1.065 55.0595 -3.60585 47.4075 4.0462L48.4184 5.05708C55.3209 -1.84546 65.5934 0.291495 71.7584 6.45656L72.7693 5.44568ZM47.4075 4.0462C44.2245 7.22915 41.216 12.3578 39.1446 17.7529L40.4792 18.2653C42.5067 12.9846 45.4233 8.05215 48.4184 5.05708L47.4075 4.0462Z" fill="#121F7A" mask="url(#path-1-inside-1_103_6862)" stroke="#121F7A"></path></svg>